<svg width="217" height="64" viewBox="0 0 217 64" fill="none" xmlns="http://www.w3.org/2000/svg">
<path d="M43.1349 0C43.1349 0 48.7889 13.832 24.5571 23.1229C11.39 28.1699 1.27699 41.1059 13.352 61.0887C14.352 52.1567 18.6399 32.4628 37.0779 27.9688C37.0779 27.9688 19.9169 34.3858 18.401 63.4327C27.219 64.6707 47.8998 65.5026 54.0399 47.5557C62.1479 23.8439 43.1349 0 43.1349 0Z" fill="#3A7F0D"/>
<path d="M18.409 63.3118C37.1289 55.8408 50.7499 38.3389 52.6298 17.446C48.8028 7.12293 43.1349 0 43.1349 0C43.1349 0 48.7889 13.832 24.5571 23.1229C11.39 28.1699 1.27699 41.1059 13.352 61.0887C14.352 52.1567 18.6399 32.4628 37.0779 27.9688C37.0769 27.9689 19.967 34.3699 18.409 63.3118Z" fill="#49A010"/>
<path d="M11.484 23.584C12.4505 23.584 13.234 22.8005 13.234 21.8339C13.234 20.8674 12.4505 20.0839 11.484 20.0839C10.5175 20.0839 9.73395 20.8674 9.73395 21.8339C9.73395 22.8005 10.5175 23.584 11.484 23.584Z" fill="#3A7F0D"/>
<path d="M16.984 21.3339C17.6743 21.3339 18.234 20.7743 18.234 20.0839C18.234 19.3936 17.6743 18.834 16.984 18.834C16.2936 18.834 15.734 19.3936 15.734 20.0839C15.734 20.7743 16.2936 21.3339 16.984 21.3339Z" fill="#49A010"/>
<path d="M15.8591 11.334C17.5849 11.334 18.984 9.93487 18.984 8.20902C18.984 6.48316 17.5849 5.08408 15.8591 5.08408C14.1332 5.08408 12.7341 6.48316 12.7341 8.20902C12.7341 9.93487 14.1332 11.334 15.8591 11.334Z" fill="#49A010"/>
<path d="M25.484 16.334C26.0363 16.334 26.484 15.8863 26.484 15.334C26.484 14.7817 26.0363 14.334 25.484 14.334C24.9317 14.334 24.484 14.7817 24.484 15.334C24.484 15.8863 24.9317 16.334 25.484 16.334Z" fill="#49A010"/>
<path d="M33.86 12.5839C35.4478 12.5839 36.7349 11.2968 36.7349 9.70895C36.7349 8.12115 35.4478 6.83398 33.86 6.83398C32.2722 6.83398 30.985 8.12115 30.985 9.70895C30.985 11.2968 32.2722 12.5839 33.86 12.5839Z" fill="#49A010"/>
<path d="M112.82 27V10.2422H119.851C123.117 10.2422 124.75 11.7773 124.75 14.8477C124.75 17.8711 122.136 19.7969 116.91 20.625L116.699 19.5C121.152 18.8828 123.379 17.3633 123.379 14.9414C123.379 12.5352 122.136 11.332 119.652 11.332H114.05V27H112.82ZM131.017 10.2422V27H129.787V10.2422H131.017ZM136.23 23.5195C136.23 21.0742 137.855 19.8516 141.105 19.8516C142.254 19.8516 143.48 19.9297 144.785 20.0859V18.5742C144.785 16.6914 143.601 15.75 141.234 15.75C139.969 15.75 138.672 15.9453 137.344 16.3359V15.2812C138.672 14.8906 139.969 14.6953 141.234 14.6953C144.422 14.6953 146.015 15.9688 146.015 18.5156V27H145.265L144.984 25.7812C143.445 26.5938 141.953 27 140.508 27C137.656 27 136.23 25.8398 136.23 23.5195ZM141.105 20.9062C138.676 20.9062 137.461 21.7656 137.461 23.4844C137.461 25.125 138.476 25.9453 140.508 25.9453C142.008 25.9453 143.433 25.5469 144.785 24.75V21.1406C143.48 20.9844 142.254 20.9062 141.105 20.9062ZM151.697 27V14.6953H152.576L152.728 16.2656C154.299 15.2188 155.838 14.6953 157.346 14.6953C160.338 14.6953 161.834 15.9883 161.834 18.5742V27H160.603V18.5391C160.603 16.7109 159.498 15.7969 157.287 15.7969C155.81 15.7969 154.357 16.3164 152.928 17.3555V27H151.697ZM167.469 12.7031H168.336L168.559 14.6953H172.25V15.75H168.664V23.5195C168.664 25.1367 169.258 25.9453 170.445 25.9453H172.25V27H170.469C168.469 27 167.469 25.8945 167.469 23.6836V12.7031ZM74.0816 54V37.2422H81.1128C84.3784 37.2422 86.0113 38.7773 86.0113 41.8477C86.0113 44.8711 83.398 46.7969 78.1714 47.625L77.9605 46.5C82.4136 45.8828 84.6402 44.3633 84.6402 41.9414C84.6402 39.5352 83.398 38.332 80.9136 38.332H75.312V54H74.0816ZM100.951 41.6953V54H100.048L99.9078 52.4297C98.4938 53.4766 96.9156 54 95.1734 54C92.2672 54 90.8141 52.4727 90.8141 49.418V41.6953H92.0445V49.4531C92.0445 51.75 93.107 52.8984 95.232 52.8984C96.7867 52.8984 98.2828 52.3789 99.7203 51.3398V41.6953H100.951ZM106.633 54V41.6953H107.511L107.664 43.7344C108.898 42.375 110.273 41.6953 111.789 41.6953V42.6797C110.32 42.6797 109.011 43.3945 107.863 44.8242V54H106.633ZM117.236 52.1953C118.478 52.6172 119.623 52.8281 120.67 52.8281C123.849 52.8281 125.439 51.0586 125.439 47.5195C125.439 44.3711 123.857 42.7969 120.693 42.7969C119.599 42.7969 118.447 42.8906 117.236 43.0781V52.1953ZM116.006 42.1992C117.404 41.8633 118.974 41.6953 120.717 41.6953C124.662 41.6953 126.635 43.6445 126.635 47.543C126.635 51.8477 124.65 54 120.681 54C119.697 54 118.549 53.8047 117.236 53.4141V58.4531H116.006V42.1992ZM132.375 47.8008C132.375 51.3086 133.879 53.0625 136.887 53.0625C139.894 53.0625 141.398 51.3086 141.398 47.8008C141.398 44.3555 139.894 42.6328 136.887 42.6328C133.879 42.6328 132.375 44.3555 132.375 47.8008ZM131.144 47.8477C131.144 43.668 133.058 41.5781 136.887 41.5781C140.715 41.5781 142.629 43.668 142.629 47.8477C142.629 52.0195 140.715 54.1055 136.887 54.1055C133.074 54.1055 131.16 52.0195 131.144 47.8477ZM147.478 53.4141V52.2422C148.846 52.7109 150.189 52.9453 151.51 52.9453C154.096 52.9453 155.389 52.125 155.389 50.4844C155.389 49.1562 154.432 48.4922 152.518 48.4922H150.947C148.369 48.4922 147.08 47.3984 147.08 45.2109C147.08 42.8672 148.787 41.6953 152.201 41.6953C153.514 41.6953 154.853 41.8906 156.221 42.2812V43.4531C154.853 42.9844 153.514 42.75 152.201 42.75C149.607 42.75 148.31 43.5703 148.31 45.2109C148.31 46.6172 149.189 47.3203 150.947 47.3203H152.518C155.252 47.3203 156.619 48.375 156.619 50.4844C156.619 52.8281 154.916 54 151.51 54C150.189 54 148.846 53.8047 147.478 53.4141ZM166.66 41.6953C170.027 41.6953 171.711 43.5586 171.711 47.2852C171.711 47.5508 171.703 47.8281 171.688 48.1172H162.348C162.348 51.3359 164.051 52.9453 167.457 52.9453C168.855 52.9453 170.098 52.75 171.184 52.3594V53.4141C170.098 53.8047 168.855 54 167.457 54C163.23 54 161.117 51.9023 161.117 47.707C161.117 43.6992 162.965 41.6953 166.66 41.6953ZM162.348 47.0156H170.527C170.48 44.1562 169.191 42.7266 166.66 42.7266C163.926 42.7266 162.488 44.1562 162.348 47.0156Z" fill="#397D54"/>
</svg>
