<svg width="330" height="48" viewBox="0 0 330 48" fill="none" xmlns="http://www.w3.org/2000/svg">
<rect width="330" height="48" rx="4" fill="#397D54"/>
<path d="M119.048 28.098C118.329 28.098 117.685 27.9813 117.116 27.748C116.546 27.5147 116.089 27.1693 115.744 26.712C115.408 26.2547 115.23 25.704 115.212 25.06H117.76C117.797 25.424 117.923 25.704 118.138 25.9C118.352 26.0867 118.632 26.18 118.978 26.18C119.332 26.18 119.612 26.1007 119.818 25.942C120.023 25.774 120.126 25.5453 120.126 25.256C120.126 25.0133 120.042 24.8127 119.874 24.654C119.715 24.4953 119.514 24.3647 119.272 24.262C119.038 24.1593 118.702 24.0427 118.264 23.912C117.629 23.716 117.111 23.52 116.71 23.324C116.308 23.128 115.963 22.8387 115.674 22.456C115.384 22.0733 115.24 21.574 115.24 20.958C115.24 20.0433 115.571 19.3293 116.234 18.816C116.896 18.2933 117.76 18.032 118.824 18.032C119.906 18.032 120.779 18.2933 121.442 18.816C122.104 19.3293 122.459 20.048 122.506 20.972H119.916C119.897 20.6547 119.78 20.4073 119.566 20.23C119.351 20.0433 119.076 19.95 118.74 19.95C118.45 19.95 118.217 20.0293 118.04 20.188C117.862 20.3373 117.774 20.5567 117.774 20.846C117.774 21.1633 117.923 21.4107 118.222 21.588C118.52 21.7653 118.987 21.9567 119.622 22.162C120.256 22.3767 120.77 22.582 121.162 22.778C121.563 22.974 121.908 23.2587 122.198 23.632C122.487 24.0053 122.632 24.486 122.632 25.074C122.632 25.634 122.487 26.1427 122.198 26.6C121.918 27.0573 121.507 27.4213 120.966 27.692C120.424 27.9627 119.785 28.098 119.048 28.098ZM126.429 19.376C126.009 19.376 125.664 19.2547 125.393 19.012C125.132 18.76 125.001 18.452 125.001 18.088C125.001 17.7147 125.132 17.4067 125.393 17.164C125.664 16.912 126.009 16.786 126.429 16.786C126.84 16.786 127.176 16.912 127.437 17.164C127.708 17.4067 127.843 17.7147 127.843 18.088C127.843 18.452 127.708 18.76 127.437 19.012C127.176 19.2547 126.84 19.376 126.429 19.376ZM127.619 20.188V28H125.225V20.188H127.619ZM133.442 20.076C133.992 20.076 134.473 20.188 134.884 20.412C135.304 20.636 135.626 20.93 135.85 21.294V20.188H138.244V27.986C138.244 28.7047 138.099 29.3533 137.81 29.932C137.53 30.52 137.096 30.9867 136.508 31.332C135.929 31.6773 135.206 31.85 134.338 31.85C133.18 31.85 132.242 31.5747 131.524 31.024C130.805 30.4827 130.394 29.7453 130.292 28.812H132.658C132.732 29.1107 132.91 29.344 133.19 29.512C133.47 29.6893 133.815 29.778 134.226 29.778C134.72 29.778 135.112 29.6333 135.402 29.344C135.7 29.064 135.85 28.6113 135.85 27.986V26.88C135.616 27.244 135.294 27.5427 134.884 27.776C134.473 28 133.992 28.112 133.442 28.112C132.798 28.112 132.214 27.9487 131.692 27.622C131.169 27.286 130.754 26.8147 130.446 26.208C130.147 25.592 129.998 24.8827 129.998 24.08C129.998 23.2773 130.147 22.5727 130.446 21.966C130.754 21.3593 131.169 20.8927 131.692 20.566C132.214 20.2393 132.798 20.076 133.442 20.076ZM135.85 24.094C135.85 23.4967 135.682 23.0253 135.346 22.68C135.019 22.3347 134.618 22.162 134.142 22.162C133.666 22.162 133.26 22.3347 132.924 22.68C132.597 23.016 132.434 23.4827 132.434 24.08C132.434 24.6773 132.597 25.1533 132.924 25.508C133.26 25.8533 133.666 26.026 134.142 26.026C134.618 26.026 135.019 25.8533 135.346 25.508C135.682 25.1627 135.85 24.6913 135.85 24.094ZM145.856 20.104C146.77 20.104 147.498 20.4027 148.04 21C148.59 21.588 148.866 22.4 148.866 23.436V28H146.486V23.758C146.486 23.2353 146.35 22.8293 146.08 22.54C145.809 22.2507 145.445 22.106 144.988 22.106C144.53 22.106 144.166 22.2507 143.896 22.54C143.625 22.8293 143.49 23.2353 143.49 23.758V28H141.096V20.188H143.49V21.224C143.732 20.8787 144.059 20.608 144.47 20.412C144.88 20.2067 145.342 20.104 145.856 20.104ZM158.088 18.172V24.052C158.088 24.64 158.233 25.0927 158.522 25.41C158.811 25.7273 159.236 25.886 159.796 25.886C160.356 25.886 160.785 25.7273 161.084 25.41C161.383 25.0927 161.532 24.64 161.532 24.052V18.172H163.926V24.038C163.926 24.9153 163.739 25.6573 163.366 26.264C162.993 26.8707 162.489 27.328 161.854 27.636C161.229 27.944 160.529 28.098 159.754 28.098C158.979 28.098 158.284 27.9487 157.668 27.65C157.061 27.342 156.581 26.8847 156.226 26.278C155.871 25.662 155.694 24.9153 155.694 24.038V18.172H158.088ZM169.121 21.294C169.355 20.93 169.677 20.636 170.087 20.412C170.498 20.188 170.979 20.076 171.529 20.076C172.173 20.076 172.757 20.2393 173.279 20.566C173.802 20.8927 174.213 21.3593 174.511 21.966C174.819 22.5727 174.973 23.2773 174.973 24.08C174.973 24.8827 174.819 25.592 174.511 26.208C174.213 26.8147 173.802 27.286 173.279 27.622C172.757 27.9487 172.173 28.112 171.529 28.112C170.988 28.112 170.507 28 170.087 27.776C169.677 27.552 169.355 27.2627 169.121 26.908V31.724H166.727V20.188H169.121V21.294ZM172.537 24.08C172.537 23.4827 172.369 23.016 172.033 22.68C171.707 22.3347 171.301 22.162 170.815 22.162C170.339 22.162 169.933 22.3347 169.597 22.68C169.271 23.0253 169.107 23.4967 169.107 24.094C169.107 24.6913 169.271 25.1627 169.597 25.508C169.933 25.8533 170.339 26.026 170.815 26.026C171.291 26.026 171.697 25.8533 172.033 25.508C172.369 25.1533 172.537 24.6773 172.537 24.08ZM190.228 28H187.834L183.83 21.938V28H181.436V18.172H183.83L187.834 24.262V18.172H190.228V28ZM196.639 28.112C195.874 28.112 195.183 27.9487 194.567 27.622C193.961 27.2953 193.48 26.8287 193.125 26.222C192.78 25.6153 192.607 24.906 192.607 24.094C192.607 23.2913 192.785 22.5867 193.139 21.98C193.494 21.364 193.979 20.8927 194.595 20.566C195.211 20.2393 195.902 20.076 196.667 20.076C197.433 20.076 198.123 20.2393 198.739 20.566C199.355 20.8927 199.841 21.364 200.195 21.98C200.55 22.5867 200.727 23.2913 200.727 24.094C200.727 24.8967 200.545 25.606 200.181 26.222C199.827 26.8287 199.337 27.2953 198.711 27.622C198.095 27.9487 197.405 28.112 196.639 28.112ZM196.639 26.04C197.097 26.04 197.484 25.872 197.801 25.536C198.128 25.2 198.291 24.7193 198.291 24.094C198.291 23.4687 198.133 22.988 197.815 22.652C197.507 22.316 197.125 22.148 196.667 22.148C196.201 22.148 195.813 22.316 195.505 22.652C195.197 22.9787 195.043 23.4593 195.043 24.094C195.043 24.7193 195.193 25.2 195.491 25.536C195.799 25.872 196.182 26.04 196.639 26.04ZM214.331 20.188L212.217 28H209.571L208.339 22.932L207.065 28H204.433L202.305 20.188H204.699L205.805 25.774L207.121 20.188H209.655L210.985 25.746L212.077 20.188H214.331Z" fill="#F8F6F5"/>
</svg>
