<svg width="94" height="36" viewBox="0 0 94 36" fill="none" xmlns="http://www.w3.org/2000/svg">
<rect width="94" height="36" rx="4" fill="#397D54"/>
<path d="M21.274 23.098C20.5553 23.098 19.9113 22.9813 19.342 22.748C18.7726 22.5147 18.3153 22.1693 17.97 21.712C17.634 21.2547 17.4566 20.704 17.438 20.06H19.986C20.0233 20.424 20.1493 20.704 20.364 20.9C20.5786 21.0867 20.8586 21.18 21.204 21.18C21.5586 21.18 21.8386 21.1007 22.044 20.942C22.2493 20.774 22.352 20.5453 22.352 20.256C22.352 20.0133 22.268 19.8127 22.1 19.654C21.9413 19.4953 21.7406 19.3647 21.498 19.262C21.2646 19.1593 20.9286 19.0427 20.49 18.912C19.8553 18.716 19.3373 18.52 18.936 18.324C18.5346 18.128 18.1893 17.8387 17.9 17.456C17.6106 17.0733 17.466 16.574 17.466 15.958C17.466 15.0433 17.7973 14.3293 18.46 13.816C19.1226 13.2933 19.986 13.032 21.05 13.032C22.1326 13.032 23.0053 13.2933 23.668 13.816C24.3306 14.3293 24.6853 15.048 24.732 15.972H22.142C22.1233 15.6547 22.0066 15.4073 21.792 15.23C21.5773 15.0433 21.302 14.95 20.966 14.95C20.6766 14.95 20.4433 15.0293 20.266 15.188C20.0886 15.3373 20 15.5567 20 15.846C20 16.1633 20.1493 16.4107 20.448 16.588C20.7466 16.7653 21.2133 16.9567 21.848 17.162C22.4826 17.3767 22.996 17.582 23.388 17.778C23.7893 17.974 24.1346 18.2587 24.424 18.632C24.7133 19.0053 24.858 19.486 24.858 20.074C24.858 20.634 24.7133 21.1427 24.424 21.6C24.144 22.0573 23.7333 22.4213 23.192 22.692C22.6506 22.9627 22.0113 23.098 21.274 23.098ZM28.6552 14.376C28.2352 14.376 27.8899 14.2547 27.6192 14.012C27.3579 13.76 27.2272 13.452 27.2272 13.088C27.2272 12.7147 27.3579 12.4067 27.6192 12.164C27.8899 11.912 28.2352 11.786 28.6552 11.786C29.0659 11.786 29.4019 11.912 29.6632 12.164C29.9339 12.4067 30.0692 12.7147 30.0692 13.088C30.0692 13.452 29.9339 13.76 29.6632 14.012C29.4019 14.2547 29.0659 14.376 28.6552 14.376ZM29.8452 15.188V23H27.4512V15.188H29.8452ZM35.6681 15.076C36.2188 15.076 36.6995 15.188 37.1101 15.412C37.5301 15.636 37.8521 15.93 38.0761 16.294V15.188H40.4701V22.986C40.4701 23.7047 40.3255 24.3533 40.0361 24.932C39.7561 25.52 39.3221 25.9867 38.7341 26.332C38.1555 26.6773 37.4321 26.85 36.5641 26.85C35.4068 26.85 34.4688 26.5747 33.7501 26.024C33.0315 25.4827 32.6208 24.7453 32.5181 23.812H34.8841C34.9588 24.1107 35.1361 24.344 35.4161 24.512C35.6961 24.6893 36.0415 24.778 36.4521 24.778C36.9468 24.778 37.3388 24.6333 37.6281 24.344C37.9268 24.064 38.0761 23.6113 38.0761 22.986V21.88C37.8428 22.244 37.5208 22.5427 37.1101 22.776C36.6995 23 36.2188 23.112 35.6681 23.112C35.0241 23.112 34.4408 22.9487 33.9181 22.622C33.3955 22.286 32.9801 21.8147 32.6721 21.208C32.3735 20.592 32.2241 19.8827 32.2241 19.08C32.2241 18.2773 32.3735 17.5727 32.6721 16.966C32.9801 16.3593 33.3955 15.8927 33.9181 15.566C34.4408 15.2393 35.0241 15.076 35.6681 15.076ZM38.0761 19.094C38.0761 18.4967 37.9081 18.0253 37.5721 17.68C37.2455 17.3347 36.8441 17.162 36.3681 17.162C35.8921 17.162 35.4861 17.3347 35.1501 17.68C34.8235 18.016 34.6601 18.4827 34.6601 19.08C34.6601 19.6773 34.8235 20.1533 35.1501 20.508C35.4861 20.8533 35.8921 21.026 36.3681 21.026C36.8441 21.026 37.2455 20.8533 37.5721 20.508C37.9081 20.1627 38.0761 19.6913 38.0761 19.094ZM48.0821 15.104C48.9968 15.104 49.7248 15.4027 50.2661 16C50.8168 16.588 51.0921 17.4 51.0921 18.436V23H48.7121V18.758C48.7121 18.2353 48.5768 17.8293 48.3061 17.54C48.0354 17.2507 47.6714 17.106 47.2141 17.106C46.7568 17.106 46.3928 17.2507 46.1221 17.54C45.8514 17.8293 45.7161 18.2353 45.7161 18.758V23H43.3221V15.188H45.7161V16.224C45.9588 15.8787 46.2854 15.608 46.6961 15.412C47.1068 15.2067 47.5688 15.104 48.0821 15.104ZM65.6765 15.188V23H63.2825V21.936C63.0398 22.2813 62.7085 22.5613 62.2885 22.776C61.8778 22.9813 61.4205 23.084 60.9165 23.084C60.3192 23.084 59.7918 22.9533 59.3345 22.692C58.8772 22.4213 58.5225 22.034 58.2705 21.53C58.0185 21.026 57.8925 20.4333 57.8925 19.752V15.188H60.2725V19.43C60.2725 19.9527 60.4078 20.3587 60.6785 20.648C60.9492 20.9373 61.3132 21.082 61.7705 21.082C62.2372 21.082 62.6058 20.9373 62.8765 20.648C63.1472 20.3587 63.2825 19.9527 63.2825 19.43V15.188H65.6765ZM70.9101 16.294C71.1434 15.93 71.4654 15.636 71.8761 15.412C72.2868 15.188 72.7674 15.076 73.3181 15.076C73.9621 15.076 74.5454 15.2393 75.0681 15.566C75.5908 15.8927 76.0014 16.3593 76.3001 16.966C76.6081 17.5727 76.7621 18.2773 76.7621 19.08C76.7621 19.8827 76.6081 20.592 76.3001 21.208C76.0014 21.8147 75.5908 22.286 75.0681 22.622C74.5454 22.9487 73.9621 23.112 73.3181 23.112C72.7768 23.112 72.2961 23 71.8761 22.776C71.4654 22.552 71.1434 22.2627 70.9101 21.908V26.724H68.5161V15.188H70.9101V16.294ZM74.3261 19.08C74.3261 18.4827 74.1581 18.016 73.8221 17.68C73.4954 17.3347 73.0894 17.162 72.6041 17.162C72.1281 17.162 71.7221 17.3347 71.3861 17.68C71.0594 18.0253 70.8961 18.4967 70.8961 19.094C70.8961 19.6913 71.0594 20.1627 71.3861 20.508C71.7221 20.8533 72.1281 21.026 72.6041 21.026C73.0801 21.026 73.4861 20.8533 73.8221 20.508C74.1581 20.1533 74.3261 19.6773 74.3261 19.08Z" fill="#F8F6F5"/>
</svg>
