<svg width="94" height="36" viewBox="0 0 94 36" fill="none" xmlns="http://www.w3.org/2000/svg">
<rect width="94" height="36" rx="4" fill="#E4D5C7"/>
<path d="M23.9605 23.098C23.2418 23.098 22.5978 22.9813 22.0285 22.748C21.4592 22.5147 21.0018 22.1693 20.6565 21.712C20.3205 21.2547 20.1432 20.704 20.1245 20.06H22.6725C22.7098 20.424 22.8358 20.704 23.0505 20.9C23.2652 21.0867 23.5452 21.18 23.8905 21.18C24.2452 21.18 24.5252 21.1007 24.7305 20.942C24.9358 20.774 25.0385 20.5453 25.0385 20.256C25.0385 20.0133 24.9545 19.8127 24.7865 19.654C24.6278 19.4953 24.4272 19.3647 24.1845 19.262C23.9512 19.1593 23.6152 19.0427 23.1765 18.912C22.5418 18.716 22.0238 18.52 21.6225 18.324C21.2212 18.128 20.8758 17.8387 20.5865 17.456C20.2972 17.0733 20.1525 16.574 20.1525 15.958C20.1525 15.0433 20.4838 14.3293 21.1465 13.816C21.8092 13.2933 22.6725 13.032 23.7365 13.032C24.8192 13.032 25.6918 13.2933 26.3545 13.816C27.0172 14.3293 27.3718 15.048 27.4185 15.972H24.8285C24.8098 15.6547 24.6932 15.4073 24.4785 15.23C24.2638 15.0433 23.9885 14.95 23.6525 14.95C23.3632 14.95 23.1298 15.0293 22.9525 15.188C22.7752 15.3373 22.6865 15.5567 22.6865 15.846C22.6865 16.1633 22.8358 16.4107 23.1345 16.588C23.4332 16.7653 23.8998 16.9567 24.5345 17.162C25.1692 17.3767 25.6825 17.582 26.0745 17.778C26.4758 17.974 26.8212 18.2587 27.1105 18.632C27.3998 19.0053 27.5445 19.486 27.5445 20.074C27.5445 20.634 27.3998 21.1427 27.1105 21.6C26.8305 22.0573 26.4198 22.4213 25.8785 22.692C25.3372 22.9627 24.6978 23.098 23.9605 23.098ZM31.3418 14.376C30.9218 14.376 30.5764 14.2547 30.3058 14.012C30.0444 13.76 29.9138 13.452 29.9138 13.088C29.9138 12.7147 30.0444 12.4067 30.3058 12.164C30.5764 11.912 30.9218 11.786 31.3418 11.786C31.7524 11.786 32.0884 11.912 32.3498 12.164C32.6204 12.4067 32.7558 12.7147 32.7558 13.088C32.7558 13.452 32.6204 13.76 32.3498 14.012C32.0884 14.2547 31.7524 14.376 31.3418 14.376ZM32.5318 15.188V23H30.1378V15.188H32.5318ZM38.3547 15.076C38.9053 15.076 39.386 15.188 39.7967 15.412C40.2167 15.636 40.5387 15.93 40.7627 16.294V15.188H43.1567V22.986C43.1567 23.7047 43.012 24.3533 42.7227 24.932C42.4427 25.52 42.0087 25.9867 41.4207 26.332C40.842 26.6773 40.1187 26.85 39.2507 26.85C38.0933 26.85 37.1553 26.5747 36.4367 26.024C35.718 25.4827 35.3073 24.7453 35.2047 23.812H37.5707C37.6453 24.1107 37.8227 24.344 38.1027 24.512C38.3827 24.6893 38.728 24.778 39.1387 24.778C39.6333 24.778 40.0253 24.6333 40.3147 24.344C40.6133 24.064 40.7627 23.6113 40.7627 22.986V21.88C40.5293 22.244 40.2073 22.5427 39.7967 22.776C39.386 23 38.9053 23.112 38.3547 23.112C37.7107 23.112 37.1273 22.9487 36.6047 22.622C36.082 22.286 35.6667 21.8147 35.3587 21.208C35.06 20.592 34.9107 19.8827 34.9107 19.08C34.9107 18.2773 35.06 17.5727 35.3587 16.966C35.6667 16.3593 36.082 15.8927 36.6047 15.566C37.1273 15.2393 37.7107 15.076 38.3547 15.076ZM40.7627 19.094C40.7627 18.4967 40.5947 18.0253 40.2587 17.68C39.932 17.3347 39.5307 17.162 39.0547 17.162C38.5787 17.162 38.1727 17.3347 37.8367 17.68C37.51 18.016 37.3467 18.4827 37.3467 19.08C37.3467 19.6773 37.51 20.1533 37.8367 20.508C38.1727 20.8533 38.5787 21.026 39.0547 21.026C39.5307 21.026 39.932 20.8533 40.2587 20.508C40.5947 20.1627 40.7627 19.6913 40.7627 19.094ZM50.7686 15.104C51.6833 15.104 52.4113 15.4027 52.9526 16C53.5033 16.588 53.7786 17.4 53.7786 18.436V23H51.3986V18.758C51.3986 18.2353 51.2633 17.8293 50.9926 17.54C50.722 17.2507 50.358 17.106 49.9006 17.106C49.4433 17.106 49.0793 17.2507 48.8086 17.54C48.538 17.8293 48.4026 18.2353 48.4026 18.758V23H46.0086V15.188H48.4026V16.224C48.6453 15.8787 48.972 15.608 49.3826 15.412C49.7933 15.2067 50.2553 15.104 50.7686 15.104ZM63.043 13.172V23H60.649V13.172H63.043ZM70.6579 15.104C71.5726 15.104 72.3006 15.4027 72.8419 16C73.3926 16.588 73.6679 17.4 73.6679 18.436V23H71.2879V18.758C71.2879 18.2353 71.1526 17.8293 70.8819 17.54C70.6113 17.2507 70.2473 17.106 69.7899 17.106C69.3326 17.106 68.9686 17.2507 68.6979 17.54C68.4273 17.8293 68.2919 18.2353 68.2919 18.758V23H65.8979V15.188H68.2919V16.224C68.5346 15.8787 68.8613 15.608 69.2719 15.412C69.6826 15.2067 70.1446 15.104 70.6579 15.104Z" fill="#495057"/>
</svg>
