<svg width="48" height="48" viewBox="0 0 48 48" fill="none" xmlns="http://www.w3.org/2000/svg">
<path d="M24 0C10.7674 0 0 10.7651 0 24C0 37.2349 10.7674 48 24 48C37.2326 48 48 37.2349 48 24C48 10.7651 37.2326 0 24 0ZM24 46.4014C11.649 46.4014 1.6015 36.3518 1.6015 24C1.6015 11.6482 11.649 1.5986 24 1.5986C36.351 1.5986 46.3985 11.6482 46.3985 24C46.3985 36.3518 36.351 46.4014 24 46.4014Z" fill="#212429"/>
<path d="M37.1622 16.5847C37.3282 16.2774 37.465 15.9551 37.5708 15.6222C37.6198 15.4678 37.6208 15.3022 37.5737 15.1472C37.5265 14.9922 37.4335 14.8552 37.3069 14.7541C37.1802 14.6531 37.026 14.5929 36.8644 14.5814C36.7028 14.5699 36.5415 14.6077 36.4019 14.6897C35.6349 15.1454 34.8047 15.4848 33.9383 15.6971C32.8865 14.7478 31.5205 14.2215 30.1037 14.2197C29.3339 14.2203 28.5722 14.3763 27.8642 14.6784C27.1562 14.9805 26.5165 15.4225 25.9835 15.9778C25.4504 16.5331 25.035 17.1904 24.762 17.9102C24.4891 18.6299 24.3643 19.3974 24.3951 20.1666C21.029 19.7428 17.9552 18.0394 15.8114 15.4097C15.7293 15.3101 15.6243 15.2317 15.5054 15.1814C15.3865 15.131 15.2572 15.1101 15.1285 15.1204C14.9998 15.1306 14.8755 15.1718 14.7661 15.2405C14.6568 15.3091 14.5656 15.4031 14.5003 15.5145C14.0094 16.3571 13.7426 17.3114 13.7253 18.2864C13.708 19.2615 13.9408 20.2247 14.4015 21.0841C14.2885 21.1032 14.18 21.1428 14.0812 21.2009C13.9602 21.2781 13.8606 21.3845 13.7915 21.5103C13.7224 21.6361 13.6862 21.7773 13.6861 21.9209C13.6861 23.6198 14.4419 25.1794 15.6602 26.2392L15.6079 26.2916C15.5159 26.3956 15.4526 26.5219 15.4243 26.6578C15.3959 26.7938 15.4035 26.9348 15.4462 27.0669C15.7003 27.8595 16.1245 28.587 16.6891 29.1985C17.2538 29.81 17.9452 30.2907 18.7151 30.6069C17.1339 31.3783 15.3644 31.6791 13.6172 31.4736C13.4376 31.4553 13.257 31.497 13.1037 31.5924C12.9504 31.6877 12.8331 31.8312 12.7701 32.0004C12.7096 32.1709 12.7084 32.3568 12.7668 32.528C12.8253 32.6991 12.9398 32.8455 13.0919 32.9434C15.4672 34.468 18.2305 35.278 21.053 35.277C30.3027 35.277 35.8316 27.7629 35.8316 20.4989L35.8301 20.2534C36.7266 19.5535 37.5052 18.7147 38.1366 17.7687C38.2322 17.6257 38.2792 17.4557 38.2707 17.2839C38.2621 17.112 38.1985 16.9475 38.0892 16.8147C37.9799 16.6819 37.8307 16.5878 37.6637 16.5464C37.4968 16.5049 37.3209 16.5184 37.1622 16.5847ZM34.5504 19.2116C34.4418 19.2897 34.3545 19.3938 34.2965 19.5143C34.2384 19.6349 34.2115 19.768 34.2182 19.9017C34.2271 20.0992 34.2316 20.2998 34.2316 20.4974C34.2316 26.9756 29.3029 33.6769 21.0544 33.6769C19.5833 33.6776 18.1226 33.4306 16.7334 32.9464C18.3972 32.6276 19.9601 31.9141 21.2909 30.8659C21.4205 30.7637 21.5153 30.624 21.5625 30.4659C21.6096 30.3078 21.6068 30.139 21.5544 29.9826C21.502 29.8261 21.4025 29.6897 21.2696 29.592C21.1368 29.4942 20.9769 29.4399 20.812 29.4364C20.1666 29.4241 19.5332 29.2602 18.9628 28.9581C18.3924 28.656 17.901 28.224 17.5282 27.6971C17.9068 27.6716 18.278 27.6088 18.6387 27.5115C18.8133 27.4648 18.9669 27.3602 19.0744 27.215C19.182 27.0697 19.2371 26.8923 19.2309 26.7117C19.2246 26.5311 19.1573 26.3579 19.04 26.2204C18.9227 26.083 18.7622 25.9893 18.5848 25.9548C17.856 25.8065 17.1811 25.4629 16.6325 24.9606C16.0839 24.4583 15.6821 23.8164 15.4702 23.1033C15.8683 23.2036 16.2769 23.262 16.6855 23.2755C17.0372 23.274 17.3635 23.0584 17.4728 22.7202C17.582 22.3819 17.4533 22.0092 17.1555 21.8116C16.4512 21.3424 15.909 20.6671 15.6028 19.8782C15.2966 19.0892 15.2414 18.225 15.4447 17.4035C18.0446 20.0713 21.5552 21.6599 25.2752 21.852C25.5386 21.8535 25.7691 21.7592 25.9293 21.5661C26.0894 21.373 26.1508 21.1171 26.0939 20.8716C25.8892 19.99 25.9808 19.0654 26.3544 18.2411C26.7281 17.4168 27.363 16.7386 28.1609 16.3114C28.9588 15.8843 29.8753 15.7321 30.7684 15.8784C31.6615 16.0247 32.4816 16.4612 33.1016 17.1206C33.1945 17.2197 33.3111 17.2936 33.4405 17.3352C33.5698 17.3769 33.7077 17.3849 33.841 17.3586C34.0879 17.3092 34.3319 17.2523 34.5729 17.1864C34.4642 17.2678 34.3513 17.3432 34.2346 17.4124C34.0794 17.5075 33.9612 17.6526 33.8995 17.8239C33.8378 17.9951 33.8363 18.1823 33.8952 18.3545C33.9542 18.5267 34.07 18.6738 34.2236 18.7713C34.3773 18.8689 34.5596 18.9112 34.7405 18.8913L35.0129 18.8569C34.8629 18.9804 34.7087 19.0988 34.5504 19.2116Z" fill="#186049"/>
</svg>
